<?xml version="1.0" standalone="no"?>
<!DOCTYPE svg PUBLIC "-//W3C//DTD SVG 20010904//EN"
 "http://www.w3.org/TR/2001/REC-SVG-20010904/DTD/svg10.dtd">
<svg version="1.0" xmlns="http://www.w3.org/2000/svg"
 width="1024.000000pt" height="1024.000000pt" viewBox="0 0 1024.000000 1024.000000"
 preserveAspectRatio="xMidYMid meet">
<metadata>
Created by potrace 1.14, written by Peter Selinger 2001-2017
</metadata>
<g transform="translate(0.000000,1024.000000) scale(0.100000,-0.100000)"
fill="#000000" stroke="none">
<path d="M3666 10228 c-10 -5 -23 -11 -29 -12 -28 -4 -75 -41 -112 -88 -22
-28 -44 -56 -50 -62 -43 -49 -168 -244 -216 -336 -24 -47 -48 -88 -54 -92 -5
-4 -6 -8 -2 -8 5 0 1 -12 -7 -27 -74 -130 -169 -445 -191 -628 -3 -27 -8 -61
-10 -75 -22 -129 -26 -760 -5 -760 3 0 6 -19 6 -43 2 -57 14 -166 29 -247 2
-14 7 -42 10 -64 3 -21 7 -42 10 -46 9 -14 -17 -17 -70 -8 -84 14 -136 19
-222 23 -89 3 -103 8 -103 34 0 21 -49 98 -81 128 -14 12 -54 33 -89 46 -116
43 -221 22 -302 -58 -56 -57 -96 -155 -94 -235 1 -31 -3 -37 -43 -59 -109 -58
-231 -165 -303 -266 -29 -40 -120 -212 -118 -222 2 -15 -6 -19 -39 -21 -21 -2
-47 -4 -57 -6 -11 -2 -44 -7 -74 -11 -114 -15 -176 -33 -247 -74 -37 -21 -40
-26 -32 -48 20 -54 92 -134 161 -180 41 -27 41 -23 -8 -118 -67 -129 -139
-332 -159 -450 -3 -16 -8 -37 -10 -45 -19 -69 -30 -189 -30 -345 0 -180 10
-288 37 -390 5 -22 12 -50 14 -63 3 -13 12 -44 21 -70 8 -26 16 -51 17 -57 2
-5 10 -27 19 -49 9 -21 17 -40 17 -43 0 -2 22 -49 49 -103 96 -193 222 -354
402 -513 70 -63 212 -163 259 -184 8 -4 17 -9 20 -13 3 -3 27 -17 53 -30 33
-17 42 -26 30 -29 -10 -2 -24 -8 -31 -14 -7 -5 -15 -7 -18 -4 -3 3 -22 -1 -42
-10 -20 -8 -43 -16 -51 -18 -9 -2 -104 -32 -211 -66 -157 -50 -204 -69 -239
-98 -25 -20 -49 -39 -55 -43 -10 -7 26 -60 67 -99 26 -24 103 -61 237 -112
103 -40 105 -40 110 -42 10 -2 205 -67 220 -72 8 -3 20 -7 25 -9 6 -1 37 -9
70 -18 33 -9 80 -19 105 -22 25 -3 58 -7 74 -10 32 -5 90 -11 216 -20 162 -13
585 -6 667 10 23 5 107 18 138 22 11 1 20 3 20 4 0 2 18 6 64 15 19 3 37 8 41
10 4 2 21 7 39 10 44 8 274 85 285 96 6 5 16 9 24 9 18 0 278 127 295 145 8 7
18 10 23 7 10 -7 54 -76 97 -152 11 -19 27 -47 36 -62 82 -137 111 -189 111
-197 0 -5 4 -11 8 -13 4 -1 21 -25 37 -53 15 -27 40 -68 54 -90 14 -22 26 -42
26 -45 0 -3 8 -16 17 -30 53 -83 238 -402 238 -410 0 -6 4 -10 8 -10 4 0 20
-24 36 -52 15 -29 49 -90 76 -135 l48 -81 -61 23 c-34 13 -91 36 -127 50 -69
28 -262 93 -295 99 -11 2 -32 9 -47 15 -16 6 -28 8 -28 6 0 -2 -12 0 -27 6
-14 5 -40 12 -57 15 -17 3 -38 6 -46 8 -41 8 -87 18 -105 21 -11 2 -20 4 -20
5 0 1 -13 3 -30 5 -16 1 -43 5 -60 8 -55 11 -137 20 -310 33 -126 10 -576 10
-715 0 -165 -12 -200 -15 -251 -21 -26 -3 -71 -8 -101 -10 -29 -3 -62 -7 -73
-9 -11 -2 -45 -7 -75 -11 -54 -7 -70 -10 -120 -20 -14 -2 -45 -7 -70 -11 -24
-3 -47 -7 -50 -9 -3 -2 -26 -6 -50 -10 -25 -4 -49 -8 -55 -9 -16 -4 -78 -16
-100 -19 -48 -8 -105 -29 -120 -44 -11 -10 -14 -25 -10 -42 5 -24 122 -146
221 -232 56 -48 212 -159 224 -159 6 0 10 -4 10 -10 0 -5 4 -10 9 -10 4 0 46
-21 92 -48 74 -42 135 -71 219 -105 14 -5 34 -13 45 -18 26 -11 227 -74 285
-90 25 -7 50 -14 55 -15 27 -8 94 -24 124 -29 19 -3 37 -7 40 -9 3 -2 22 -7
41 -10 19 -3 46 -8 60 -10 86 -16 152 -26 200 -31 30 -3 69 -7 85 -9 156 -23
626 -23 735 -1 13 2 42 7 65 10 22 4 58 11 80 17 22 5 50 12 62 14 31 6 209
68 266 93 26 11 49 21 52 21 6 0 142 77 228 128 14 8 41 11 77 8 52 -5 58 -9
110 -63 52 -55 167 -183 211 -234 11 -13 44 -51 72 -84 29 -32 72 -82 96 -110
24 -27 50 -56 59 -63 9 -6 12 -12 7 -12 -5 0 -2 -6 7 -12 8 -7 59 -65 114
-128 54 -63 109 -126 122 -140 13 -14 27 -33 33 -42 12 -21 15 -22 -189 47
-227 76 -468 134 -626 150 -23 2 -54 7 -71 10 -68 14 -516 7 -605 -9 -14 -2
-50 -7 -81 -11 -31 -3 -67 -8 -80 -10 -13 -3 -42 -8 -64 -11 -65 -9 -72 -11
-145 -28 -14 -3 -36 -8 -50 -10 -49 -8 -305 -79 -345 -95 -60 -25 -192 -73
-202 -73 -7 -1 -13 -4 -13 -8 0 -4 -6 -7 -12 -7 -7 0 -38 -12 -68 -26 -52 -23
-194 -77 -215 -81 -5 -1 -14 -4 -20 -7 -5 -4 -48 -19 -95 -34 -96 -31 -210
-83 -210 -97 0 -19 52 -89 73 -98 66 -27 388 -150 422 -160 22 -7 49 -17 60
-21 50 -21 193 -55 275 -65 25 -3 56 -7 70 -9 14 -2 52 -7 85 -10 33 -4 71 -8
85 -10 27 -4 93 -12 168 -20 26 -3 67 -7 92 -10 25 -3 77 -8 115 -10 39 -2 70
-5 70 -6 0 -6 212 -13 405 -13 210 -1 367 6 440 19 14 2 43 6 65 9 22 3 51 7
65 10 14 3 41 7 60 10 19 3 46 8 60 10 14 3 36 7 50 10 14 2 36 7 50 10 14 3
36 8 50 10 14 2 45 9 70 16 25 7 56 14 70 17 111 19 321 114 425 190 37 26 79
56 95 66 l29 18 58 -58 c32 -32 92 -80 133 -108 41 -27 77 -53 80 -56 3 -3
113 -77 245 -165 132 -87 242 -161 245 -164 3 -3 17 -11 33 -19 15 -8 27 -18
27 -23 0 -4 6 -8 14 -8 8 0 27 -11 43 -24 15 -13 30 -23 33 -23 3 0 28 -14 55
-31 28 -17 55 -31 60 -32 9 -2 53 65 55 81 0 6 -202 139 -224 148 -6 2 -15 8
-21 13 -5 5 -84 57 -175 115 -241 154 -411 268 -447 300 -17 15 -55 48 -85 73
-53 45 -285 274 -344 340 -17 19 -63 73 -103 119 -40 46 -77 89 -84 96 -7 6
-46 49 -87 95 -41 46 -91 100 -110 120 -19 21 -57 63 -85 94 -27 31 -70 78
-95 104 -25 26 -74 81 -110 121 -36 40 -82 92 -104 115 -86 92 -103 112 -112
128 -5 9 -25 34 -44 55 -197 213 -381 481 -520 753 -30 58 -79 146 -110 195
-74 119 -200 342 -200 354 0 5 -3 11 -7 13 -10 4 -53 90 -53 105 0 6 -4 13 -8
15 -5 1 -28 43 -51 93 -44 92 -47 114 -22 177 6 17 20 30 38 34 71 17 134 57
199 127 106 115 190 253 234 386 10 31 39 109 64 173 25 64 52 136 60 160 8
24 24 68 36 98 12 30 23 62 25 70 2 8 11 35 20 60 9 25 18 52 20 60 2 8 13 43
24 78 11 35 26 82 32 105 7 23 14 47 15 52 9 28 25 93 30 114 3 14 7 28 10 33
3 5 7 18 10 31 2 12 6 32 9 45 3 12 7 31 10 43 2 11 6 28 9 37 3 9 8 35 11 57
4 22 9 49 12 60 3 11 7 31 8 45 2 14 6 41 10 60 4 19 8 44 9 55 5 32 17 127
21 165 19 148 26 440 12 485 -5 17 -13 42 -19 57 l-10 28 -43 -31 c-28 -20
-106 -114 -217 -263 -95 -127 -175 -233 -178 -236 -5 -5 -49 -67 -93 -132
l-25 -38 -12 53 c-6 28 -16 75 -22 102 -5 28 -17 70 -25 95 -8 25 -15 53 -16
63 -1 9 -6 17 -11 17 -5 0 -7 3 -4 6 3 3 -5 31 -18 63 l-23 58 45 138 c24 76
47 151 49 168 3 16 10 37 14 46 7 13 42 160 42 176 0 2 5 19 10 37 5 18 12 49
15 68 3 19 7 42 9 50 3 8 7 33 10 55 3 22 7 49 10 60 2 11 7 47 10 80 4 33 8
61 9 62 2 2 31 -25 67 -60 35 -35 79 -72 97 -82 17 -11 32 -23 32 -27 0 -4 9
-8 19 -8 11 0 21 -4 23 -8 6 -14 121 -60 202 -81 122 -32 320 -44 446 -26 80
10 94 13 143 24 249 58 505 219 671 421 82 101 174 271 217 402 19 59 23 74
33 138 3 14 7 36 11 50 3 14 7 69 9 122 2 53 7 101 11 107 3 6 2 11 -2 11 -5
0 -9 17 -9 38 -2 81 -56 312 -76 320 -4 2 -8 9 -8 16 0 7 -14 41 -31 75 -101
211 -302 413 -514 519 -113 57 -313 120 -335 107 -6 -4 -10 -2 -10 2 0 20
-355 20 -388 -1 -4 -2 -28 -7 -52 -11 -25 -4 -51 -11 -57 -17 -7 -6 -13 -8
-13 -4 0 7 -62 -16 -155 -59 -242 -111 -450 -347 -540 -612 -44 -130 -59 -225
-60 -383 0 -146 7 -200 41 -330 14 -52 27 -108 29 -125 7 -65 22 -129 56 -242
2 -6 -10 -22 -28 -36 -34 -25 -144 -158 -286 -347 -47 -63 -90 -119 -94 -125
-5 -5 -22 -29 -38 -52 -17 -24 -33 -43 -36 -43 -10 0 -99 86 -99 95 0 5 27 75
59 155 105 255 218 594 240 716 6 33 13 68 15 79 13 73 25 202 27 300 1 40
-29 122 -48 129 -6 3 -26 -1 -44 -7 -25 -9 -60 -49 -151 -172 -64 -88 -121
-164 -125 -170 -19 -23 -49 -64 -63 -85 -8 -13 -24 -35 -36 -49 -11 -14 -55
-75 -97 -136 -42 -60 -82 -116 -87 -122 -6 -7 -42 -61 -80 -120 -38 -60 -73
-112 -77 -118 -4 -5 -17 -27 -28 -48 -11 -20 -24 -35 -30 -33 -5 3 -27 10 -47
17 -21 7 -38 17 -38 23 0 7 20 71 44 144 25 73 42 132 39 132 -3 0 -1 6 5 13
5 6 13 28 17 47 4 19 13 53 21 76 7 22 16 51 18 65 3 13 5 24 6 24 1 0 3 7 5
15 2 8 14 62 28 120 14 58 38 164 52 235 25 125 31 153 40 220 3 17 7 41 9 55
6 28 14 84 21 148 3 23 7 59 9 80 5 40 16 176 22 257 29 445 33 833 9 912 -18
60 -23 65 -49 51z m-71 -190 c-3 -13 -9 -32 -14 -43 -49 -98 -191 -602 -216
-765 -3 -14 -11 -55 -19 -91 -8 -36 -17 -83 -20 -105 -11 -68 -16 -97 -31
-184 -8 -47 -17 -105 -20 -130 -2 -25 -7 -54 -9 -66 -4 -19 -12 -78 -22 -159
-6 -56 -16 -130 -19 -146 -2 -9 -6 -38 -9 -65 -4 -27 -9 -65 -11 -84 -3 -19
-7 -57 -10 -85 -3 -27 -8 -61 -10 -75 -2 -14 -11 -77 -20 -140 -9 -63 -18
-124 -20 -135 -2 -11 -4 -22 -4 -24 -5 -26 -47 169 -57 263 -3 33 -8 69 -10
80 -21 107 -20 507 1 671 2 17 6 53 9 80 9 76 14 113 20 132 3 10 7 34 10 53
3 19 12 67 21 105 9 39 18 78 20 88 2 9 7 22 10 27 4 6 9 23 11 38 7 37 63
201 80 235 8 15 12 27 10 27 -8 0 116 243 131 258 7 7 13 18 13 24 0 14 173
235 187 238 1 0 0 -10 -2 -22z m39 -278 c4 -25 7 -99 7 -165 1 -145 -6 -261
-27 -425 -3 -25 -7 -63 -9 -85 -2 -22 -10 -83 -19 -135 -8 -52 -18 -117 -22
-145 -3 -27 -8 -53 -10 -56 -2 -4 -7 -28 -10 -55 -10 -77 -12 -89 -14 -89 -2
0 -4 -9 -5 -20 -2 -11 -8 -41 -14 -68 -6 -26 -13 -62 -16 -80 -5 -27 -88 -362
-99 -392 -1 -5 -6 -23 -10 -40 -22 -86 -117 -335 -129 -335 -4 0 -5 35 -2 78
4 42 8 102 10 132 3 30 7 78 11 105 3 28 8 70 9 95 7 104 16 198 20 218 4 22
14 107 20 177 8 85 22 196 31 235 2 14 6 43 9 65 2 22 6 54 9 70 2 17 12 73
21 125 9 52 18 106 20 120 3 14 14 63 25 110 11 47 22 96 24 110 7 40 33 141
49 193 8 26 16 51 16 55 1 4 9 32 18 62 9 30 17 57 18 60 0 3 11 38 25 78 25
77 33 77 44 2z m416 -1455 c-10 -27 -187 -436 -227 -525 -14 -30 -31 -68 -38
-85 -7 -16 -30 -70 -51 -120 -21 -49 -38 -91 -40 -93 -2 -3 -108 50 -133 67
-12 8 -8 23 25 88 21 43 41 80 45 83 3 3 8 13 12 22 3 10 41 72 84 139 43 67
83 128 88 138 6 9 12 18 15 21 3 3 38 49 78 102 40 53 78 103 85 110 7 7 23
28 36 46 27 38 34 41 21 7z m145 -42 c-8 -31 -7 -29 -30 -133 -9 -41 -19 -84
-21 -95 -3 -11 -7 -31 -10 -45 -2 -14 -7 -32 -10 -40 -3 -8 -15 -49 -25 -90
-25 -98 -24 -95 -48 -169 -12 -35 -21 -67 -21 -71 0 -4 -8 -25 -17 -46 -9 -22
-18 -43 -19 -49 -1 -5 -8 -23 -15 -40 -7 -16 -13 -32 -14 -35 0 -3 -11 -27
-23 -54 -12 -27 -22 -52 -22 -57 0 -16 -12 -10 -66 31 -29 22 -56 40 -59 40
-4 0 -12 6 -20 13 -10 11 -10 19 4 48 9 19 27 59 40 89 43 102 183 384 257
518 41 73 74 135 74 137 0 7 44 75 49 75 2 0 0 -12 -4 -27z m-1738 -392 c47
-26 64 -40 86 -71 25 -36 21 -46 -20 -48 -37 -3 -72 -7 -123 -17 -14 -3 -39
-7 -56 -10 -18 -3 -64 -16 -102 -29 -39 -13 -73 -22 -76 -19 -15 15 26 125 62
166 50 56 153 68 229 28z m2113 -225 c-5 -14 -13 -33 -19 -43 -12 -21 -49
-102 -161 -348 -45 -99 -93 -204 -107 -234 l-26 -54 -26 31 c-14 16 -38 45
-53 63 l-26 33 52 76 c69 100 100 144 106 150 7 7 62 80 80 106 27 40 183 244
186 244 2 0 -1 -11 -6 -24z m35 -254 c-1 -9 -8 -37 -15 -62 -7 -25 -14 -53
-16 -63 -2 -10 -6 -27 -9 -37 -3 -10 -8 -27 -10 -37 -2 -10 -9 -40 -15 -68 -6
-27 -13 -59 -16 -70 -2 -11 -8 -31 -13 -45 -5 -14 -26 -87 -46 -162 -21 -76
-41 -138 -44 -138 -3 0 -21 26 -38 58 -18 31 -40 69 -49 83 -16 25 -15 29 69
195 97 192 120 237 127 244 3 3 16 28 30 55 21 42 37 64 47 65 1 0 0 -8 -2
-18z m-3175 -532 c-6 -11 -12 -20 -13 -20 -1 0 -10 9 -20 20 -16 19 -16 20 13
20 28 0 30 -2 20 -20z m3680 -460 c0 -26 -5 -72 -11 -101 -6 -30 -12 -65 -15
-79 -2 -14 -7 -36 -10 -50 -3 -14 -8 -36 -10 -50 -3 -14 -11 -56 -19 -95 -7
-38 -17 -88 -21 -110 -4 -22 -9 -44 -10 -50 -3 -11 -11 -47 -18 -85 -2 -14 -9
-47 -16 -75 -6 -27 -13 -62 -15 -77 -2 -15 -6 -31 -9 -36 -5 -8 -9 -26 -21
-89 -35 -178 -247 -771 -348 -969 -34 -66 -163 -237 -237 -313 -9 -9 -29 -34
-45 -55 l-29 -40 -12 57 c-15 63 -16 60 111 402 37 99 71 194 77 210 5 17 14
39 18 50 15 34 202 539 204 550 1 6 5 15 8 21 4 6 14 33 23 60 9 27 25 68 36
91 10 24 19 46 19 49 0 6 28 83 135 369 33 88 114 297 124 320 13 31 40 97 51
127 16 45 40 25 40 -32z m-236 -177 c-13 -38 -29 -77 -34 -88 -9 -20 -79 -201
-84 -220 -2 -5 -6 -17 -9 -25 -4 -8 -40 -105 -82 -214 -41 -110 -78 -202 -81
-205 -4 -3 -4 3 -1 14 3 11 9 38 13 60 4 22 8 49 11 60 7 37 14 139 17 242 1
56 7 108 13 115 5 7 50 67 99 133 48 66 94 126 102 134 7 8 20 24 29 37 29 45
32 24 7 -43z m-491 -1285 c-13 -35 -26 -67 -27 -73 -2 -5 -6 -19 -11 -30 -4
-11 -32 -85 -62 -165 -31 -80 -60 -156 -66 -170 -5 -14 -11 -32 -13 -40 -4
-21 -33 -86 -35 -80 -1 3 -3 64 -4 135 -2 131 2 152 37 189 30 32 138 185 138
196 0 6 4 10 9 10 5 0 13 10 17 23 7 22 33 67 39 67 2 0 -8 -28 -22 -62z
m-328 -405 c-2 -10 -4 -38 -4 -63 l-1 -45 -20 25 c-26 33 -25 58 3 81 27 23
26 23 22 2z m-96 -155 c28 -62 27 -77 -7 -62 -9 4 -20 8 -24 9 -5 2 -10 4 -13
5 -8 4 -17 7 -53 15 -18 4 -34 11 -37 15 -4 6 91 80 102 80 2 0 16 -28 32 -62z
m-230 -108 c12 -6 21 -8 21 -4 0 3 7 1 15 -6 8 -7 15 -9 15 -6 0 4 12 1 28 -7
15 -8 65 -33 112 -55 79 -39 83 -45 30 -44 -21 0 -135 14 -139 16 -12 7 -179
20 -273 20 -53 1 -94 4 -90 7 4 4 40 19 80 34 39 15 89 35 109 45 39 19 58 19
92 0z m-1482 -51 c15 -6 37 -15 48 -20 27 -11 156 -45 230 -60 55 -11 73 -14
129 -18 23 -1 17 -10 -10 -15 -24 -5 -87 -14 -139 -21 -23 -3 -50 -7 -60 -9
-11 -2 -42 -7 -68 -10 -27 -4 -58 -9 -70 -12 -20 -3 -38 -6 -139 -20 -21 -3
-52 -7 -70 -10 -18 -3 -44 -6 -58 -8 -58 -8 -127 -17 -160 -23 -19 -3 -48 -7
-65 -7 -16 -1 -34 -4 -40 -8 -8 -5 -200 -4 -225 1 -7 1 62 43 75 46 5 1 39 15
75 32 36 16 99 42 140 58 41 15 84 31 95 35 11 5 38 14 60 20 22 6 47 14 55
17 18 7 19 8 85 27 63 18 77 19 112 5z m1483 -124 c125 -7 165 -11 165 -15 0
-1 16 -3 35 -5 72 -7 120 -16 120 -23 -1 -11 -79 -66 -143 -101 -53 -30 -241
-108 -277 -117 -8 -1 -68 -17 -134 -34 -65 -16 -136 -32 -158 -35 -22 -3 -43
-7 -47 -9 -3 -2 -31 -7 -61 -11 -30 -4 -66 -9 -80 -11 -156 -24 -612 -24 -744
0 -16 3 -50 8 -75 12 -49 6 -206 41 -231 51 -8 3 -24 8 -34 10 -33 6 -200 74
-214 87 -10 10 -8 12 10 12 19 0 119 14 218 29 14 2 68 11 120 19 52 8 113 17
135 21 23 3 52 7 65 10 28 5 93 16 130 21 26 3 62 9 115 18 17 2 54 8 84 11
30 4 61 8 70 10 31 5 96 15 146 20 190 21 215 23 375 31 80 3 146 7 147 8 3 2
144 -2 263 -9z m-50 -1280 c149 -10 226 -18 310 -30 19 -3 53 -8 75 -10 22 -3
51 -8 65 -11 14 -2 36 -6 50 -9 86 -16 139 -27 165 -35 17 -5 41 -11 55 -14
87 -16 318 -106 405 -158 l30 -18 -80 5 c-44 2 -116 7 -160 10 -89 7 -175 13
-280 19 -38 2 -101 7 -140 10 -114 10 -253 20 -416 30 -73 5 -163 11 -279 21
-30 2 -95 7 -145 10 -49 3 -117 8 -150 10 -120 9 -192 14 -285 20 -52 3 -117
8 -145 10 -27 3 -86 7 -130 10 -44 3 -114 8 -155 11 -41 4 -88 6 -105 5 -25
-1 -27 1 -12 10 9 6 25 12 35 14 9 2 55 13 102 24 47 11 103 22 125 26 23 3
52 7 65 10 14 3 52 7 85 11 33 3 74 8 90 9 17 2 80 7 140 11 61 3 111 7 113 9
5 5 474 -3 572 -10z m-1445 -195 c0 0 36 -3 80 -5 44 -3 100 -7 125 -10 25 -3
81 -8 125 -11 79 -5 129 -9 255 -19 36 -2 94 -7 130 -10 36 -2 97 -7 135 -10
39 -3 97 -8 130 -10 108 -8 189 -14 250 -20 33 -3 98 -7 145 -10 47 -2 105 -7
130 -9 67 -8 183 -17 259 -22 120 -8 310 -22 386 -29 55 -5 151 -12 260 -20
39 -2 93 -7 120 -10 28 -2 91 -7 140 -11 100 -6 157 -11 166 -13 12 -2 59 -50
59 -60 0 -6 -9 -15 -19 -21 -11 -5 -26 -16 -34 -24 -7 -8 -38 -29 -68 -47 -30
-18 -55 -37 -57 -41 -2 -4 -12 -8 -23 -8 -10 0 -19 -3 -19 -8 0 -6 -71 -43
-90 -47 -3 0 -15 -6 -27 -13 -13 -7 -23 -10 -23 -7 0 3 -10 1 -21 -6 -25 -13
-139 -47 -184 -54 -194 -34 -203 -35 -380 -50 -135 -12 -467 -6 -585 10 -14 2
-45 6 -70 9 -25 3 -63 8 -85 11 -48 7 -216 42 -265 55 -248 67 -397 120 -560
198 -41 19 -77 36 -80 36 -19 5 -150 80 -150 87 0 5 -5 9 -11 9 -11 0 -135 96
-183 141 -34 33 -30 56 10 53 16 -1 29 -3 29 -4z m2700 -1180 c0 0 45 -3 100
-5 91 -4 128 -7 220 -20 17 -2 44 -6 62 -9 56 -8 196 -37 273 -57 88 -23 327
-102 373 -123 18 -8 58 -26 90 -39 32 -13 58 -28 58 -32 -1 -5 -27 -10 -58
-11 -32 -1 -128 -5 -213 -9 -85 -4 -182 -8 -215 -9 -33 -1 -65 -5 -71 -8 -5
-4 -15 -3 -22 1 -12 7 -96 5 -119 -4 -7 -2 -13 0 -13 5 0 5 -10 6 -22 2 -30
-10 -1040 -8 -1056 2 -6 4 -12 3 -12 -1 0 -5 -17 -7 -37 -5 -21 1 -63 2 -93 1
-30 0 -59 0 -65 0 -5 1 -146 2 -312 4 -166 2 -305 5 -308 8 -3 3 28 18 67 33
40 15 82 32 93 37 41 18 161 61 184 65 13 3 31 9 40 13 13 7 145 46 221 66 34
9 217 47 245 51 17 3 39 6 50 8 11 2 47 7 80 11 33 3 71 8 85 11 14 2 74 6
134 9 61 3 111 7 112 8 2 2 129 0 129 -3z m1337 -385 c15 -20 7 -30 -45 -65
-28 -19 -53 -38 -55 -42 -2 -5 -10 -8 -18 -8 -8 0 -14 -3 -14 -8 0 -4 -12 -13
-27 -19 -42 -18 -301 -102 -331 -107 -15 -2 -27 -5 -27 -6 0 -1 -7 -3 -15 -5
-8 -2 -43 -10 -77 -18 -35 -8 -63 -13 -63 -11 0 3 -6 2 -12 -3 -7 -4 -19 -8
-26 -9 -8 -2 -44 -8 -80 -14 -37 -6 -77 -12 -89 -13 -13 -1 -23 -4 -23 -7 0
-3 -17 -5 -37 -6 -21 0 -81 -4 -133 -9 -118 -11 -442 -12 -575 -1 -55 5 -118
10 -140 12 -22 1 -92 5 -155 8 -333 17 -399 21 -430 32 -8 3 -33 8 -55 11 -22
3 -69 12 -105 20 -36 7 -74 16 -86 18 -12 3 -40 11 -63 20 -23 8 -45 15 -49
16 -4 1 -11 3 -17 4 -33 8 -201 73 -260 101 -49 23 -63 32 -45 33 14 0 48 2
75 5 28 3 88 8 135 12 47 3 117 8 155 11 39 2 480 7 980 9 1019 5 931 4 948 3
23 -1 297 10 380 16 45 3 109 8 142 10 101 6 200 16 204 20 6 7 26 1 33 -10z"/>
<path d="M2220 8556 c-66 -28 -117 -108 -127 -196 -11 -105 51 -173 151 -165
161 14 247 218 134 321 -49 45 -111 60 -158 40z"/>
<path d="M1650 8232 c-23 -7 -51 -34 -67 -65 -17 -34 -5 -81 31 -120 23 -25
25 -25 77 -13 65 16 105 32 113 44 7 11 -15 72 -26 72 -4 0 -8 6 -8 13 0 35
-81 81 -120 69z"/>
<path d="M5540 6969 c0 -54 2 -59 23 -60 89 -5 118 -8 162 -14 223 -30 294
-117 310 -375 11 -173 6 -3425 -5 -3425 -1 0 -3 -11 -4 -25 -11 -108 -73 -203
-157 -238 -66 -28 -188 -49 -297 -51 l-34 -1 4 -50 c1 -28 -1 -50 -5 -50 -5 0
-6 -4 -2 -9 3 -6 68 -7 163 -3 168 6 847 7 1487 1 215 -2 415 -1 445 4 30 4
73 9 95 12 22 3 90 18 150 32 61 15 113 27 117 27 3 1 10 4 14 9 4 4 14 7 23
7 9 1 34 9 56 20 22 11 45 19 51 20 17 0 64 24 64 33 0 4 7 7 15 7 17 0 158
85 220 133 147 114 290 309 352 481 14 40 18 54 28 97 2 11 6 28 9 37 34 111
39 351 11 477 -4 17 -8 39 -10 50 -12 86 -104 284 -170 364 -53 64 -188 191
-203 191 -5 0 -17 8 -28 18 -20 18 -122 82 -131 82 -3 0 -33 13 -67 29 -57 28
-92 41 -191 75 -75 26 -246 67 -255 61 -6 -4 -10 -1 -10 5 0 6 -6 10 -12 9 -7
-1 -40 1 -73 6 -33 5 -63 9 -67 9 -27 3 -4 17 75 45 51 19 141 58 200 88 286
141 487 346 576 588 12 33 24 67 28 75 7 18 15 66 17 98 0 12 4 22 7 22 12 0
16 220 6 310 -15 135 -76 287 -157 395 -69 90 -111 131 -235 223 -23 17 -174
91 -220 107 -27 10 -56 23 -62 28 -7 5 -13 7 -13 4 0 -3 -15 -1 -32 5 -68 21
-203 48 -268 54 -19 2 -57 6 -85 9 -27 4 -167 6 -310 5 -664 -4 -1333 -3
-1462 3 l-143 6 0 -60z m1740 -72 c14 -3 42 -8 62 -11 20 -3 71 -17 112 -31
280 -94 432 -309 473 -670 13 -116 6 -416 -12 -495 -3 -14 -8 -38 -11 -55 -3
-16 -12 -54 -20 -82 -8 -29 -15 -54 -14 -55 1 -2 -22 -50 -51 -107 -122 -240
-328 -370 -643 -406 -46 -6 -504 -10 -551 -6 -12 1 -13 1528 -1 1601 21 132
42 186 92 236 42 41 105 71 178 83 52 9 341 7 386 -2z m60 -2031 c57 -6 113
-15 203 -31 13 -3 43 -11 66 -20 23 -8 42 -14 44 -14 5 1 46 -14 92 -34 113
-47 230 -139 324 -253 26 -32 83 -150 106 -219 32 -99 39 -135 52 -255 12
-112 5 -373 -11 -420 -3 -8 -7 -33 -10 -55 -13 -107 -88 -288 -159 -385 -58
-79 -149 -161 -236 -213 -64 -38 -159 -83 -196 -92 -5 -1 -17 -5 -25 -8 -25
-10 -99 -28 -137 -33 -19 -2 -38 -6 -42 -8 -12 -8 -153 -20 -238 -20 -46 -1
-83 -5 -83 -9 0 -5 -4 -6 -9 -3 -4 3 -48 8 -97 10 -152 8 -230 35 -287 99 -32
38 -65 136 -73 221 -3 34 -7 441 -8 906 l-1 846 330 -2 c181 0 359 -4 395 -8z"/>
</g>
</svg>
